<svg width="480" height="480" viewBox="0 0 480 480" fill="none" xmlns="http://www.w3.org/2000/svg">
<g filter="url(#filter0_ii_6_51)">
<rect x="47" y="47" width="386" height="386" rx="86" fill="#4085CF"/>
<rect x="47" y="47" width="386" height="386" rx="86" fill="url(#paint0_radial_6_51)" fill-opacity="0.05"/>
</g>
<g filter="url(#filter1_d_6_51)">
<path d="M329.498 165.582C335.575 170.17 336.797 178.839 332.227 184.942C327.643 191.065 318.974 192.276 312.9 187.64L274.917 158.652C267.214 152.774 256.141 158.292 256.141 168.009C256.141 171.711 257.878 175.197 260.829 177.416L329.474 229.029C335.58 233.62 336.815 242.318 332.231 248.44C327.656 254.55 319.017 255.781 312.931 251.19L275.164 222.698C267.33 216.788 256.141 222.402 256.141 232.244C256.141 236.007 257.907 239.549 260.907 241.803L318.145 284.81C329.491 293.336 330.372 310.105 319.981 319.782L265.122 370.875C250.591 384.407 226.983 374.049 226.994 354.145L227.014 316.649C227.024 297.712 205.377 287.019 190.452 298.589L167.896 316.072C160.129 322.093 148.938 320.435 143.231 312.419C137.822 304.819 139.355 294.286 146.703 288.56L183.67 259.753C195.314 250.68 195.396 233.04 183.836 223.859L146.764 194.415C139.719 188.819 138.307 178.644 143.561 171.327C149.146 163.549 160.056 162.009 167.558 167.941L190.278 185.904C205.171 197.679 227.023 187.015 227.012 167.977L226.993 133.851C226.983 115.048 248.364 104.317 263.328 115.616L329.498 165.582ZM254.268 326.651C254.397 332.94 261.861 336.127 266.46 331.856L289.269 310.674C292.583 307.596 292.329 302.259 288.737 299.513L265.121 281.456C260.285 277.758 253.335 281.307 253.461 287.411L254.268 326.651Z" fill="white"/>
</g>
<defs>
<filter id="filter0_ii_6_51" x="44" y="44" width="392" height="392" filterUnits="userSpaceOnUse" color-interpolation-filters="sRGB">
<feFlood flood-opacity="0" result="BackgroundImageFix"/>
<feBlend mode="normal" in="SourceGraphic" in2="BackgroundImageFix" result="shape"/>
<feColorMatrix in="SourceAlpha" type="matrix" values="0 0 0 0 0 0 0 0 0 0 0 0 0 0 0 0 0 0 127 0" result="hardAlpha"/>
<feMorphology radius="1" operator="erode" in="SourceAlpha" result="effect1_innerShadow_6_51"/>
<feOffset dx="3" dy="3"/>
<feGaussianBlur stdDeviation="2.5"/>
<feComposite in2="hardAlpha" operator="arithmetic" k2="-1" k3="1"/>
<feColorMatrix type="matrix" values="0 0 0 0 1 0 0 0 0 1 0 0 0 0 1 0 0 0 0.5 0"/>
<feBlend mode="normal" in2="shape" result="effect1_innerShadow_6_51"/>
<feColorMatrix in="SourceAlpha" type="matrix" values="0 0 0 0 0 0 0 0 0 0 0 0 0 0 0 0 0 0 127 0" result="hardAlpha"/>
<feOffset dx="-3" dy="-3"/>
<feGaussianBlur stdDeviation="2.5"/>
<feComposite in2="hardAlpha" operator="arithmetic" k2="-1" k3="1"/>
<feColorMatrix type="matrix" values="0 0 0 0 1 0 0 0 0 1 0 0 0 0 1 0 0 0 0.5 0"/>
<feBlend mode="normal" in2="effect1_innerShadow_6_51" result="effect2_innerShadow_6_51"/>
</filter>
<filter id="filter1_d_6_51" x="135" y="106" width="205" height="276" filterUnits="userSpaceOnUse" color-interpolation-filters="sRGB">
<feFlood flood-opacity="0" result="BackgroundImageFix"/>
<feColorMatrix in="SourceAlpha" type="matrix" values="0 0 0 0 0 0 0 0 0 0 0 0 0 0 0 0 0 0 127 0" result="hardAlpha"/>
<feOffset/>
<feGaussianBlur stdDeviation="2.5"/>
<feComposite in2="hardAlpha" operator="out"/>
<feColorMatrix type="matrix" values="0 0 0 0 0 0 0 0 0 0 0 0 0 0 0 0 0 0 0.34 0"/>
<feBlend mode="normal" in2="BackgroundImageFix" result="effect1_dropShadow_6_51"/>
<feBlend mode="normal" in="SourceGraphic" in2="effect1_dropShadow_6_51" result="shape"/>
</filter>
<radialGradient id="paint0_radial_6_51" cx="0" cy="0" r="1" gradientUnits="userSpaceOnUse" gradientTransform="translate(240 240) rotate(90) scale(193)">
<stop offset="0.480769"/>
<stop offset="1" stop-color="white"/>
</radialGradient>
</defs>
</svg>
