<svg width="290" height="290" viewBox="0 0 290 290" fill="none" xmlns="http://www.w3.org/2000/svg">
<path d="M229.921 72.4778C235.53 76.7215 236.659 84.7381 232.441 90.3823C228.209 96.0454 220.207 97.1648 214.6 92.8779L179.539 66.0694C172.429 60.6328 162.207 65.7359 162.207 74.7222C162.207 78.1463 163.811 81.37 166.535 83.422L229.899 131.155C235.535 135.401 236.675 143.444 232.444 149.106C228.221 154.757 220.247 155.895 214.629 151.649L179.767 125.3C172.535 119.834 162.207 125.026 162.207 134.128C162.207 137.608 163.837 140.884 166.607 142.969L219.441 182.742C229.915 190.627 230.728 206.135 221.137 215.084L170.497 262.335C157.084 274.85 135.292 265.271 135.302 246.864L135.321 212.186C135.33 194.674 115.348 184.785 101.571 195.484L80.7506 211.653C73.5805 217.221 63.25 215.688 57.9825 208.274C52.9895 201.247 54.4045 191.505 61.1874 186.209L95.3112 159.569C106.059 151.178 106.134 134.864 95.4638 126.373L61.2438 99.1431C54.7403 93.9681 53.4372 84.5582 58.287 77.791C63.442 70.5979 73.5128 69.1741 80.4378 74.6594L101.41 91.2719C115.158 102.161 135.329 92.2997 135.319 74.6934L135.301 43.1333C135.292 25.7434 155.028 15.8197 168.841 26.2693L229.921 72.4778ZM160.478 221.436C160.598 227.253 167.487 230.2 171.732 226.251L192.787 206.661C195.846 203.815 195.611 198.879 192.296 196.339L170.497 179.64C166.032 176.22 159.617 179.502 159.733 185.147L160.478 221.436Z" fill="black"/>
</svg>
